<mxfile host="app.diagrams.net" modified="2022-12-03T18:40:42.660Z" agent="5.0 (Windows NT 10.0; Win64; x64) AppleWebKit/537.36 (KHTML, like Gecko) Chrome/107.0.0.0 Safari/537.36" version="20.6.0" etag="UuME0O-Gofed1Y-mgo35" type="github">
  <diagram id="mbgXg7MLxgZCqN_WTLX3" name="Page-1">
    <mxGraphModel dx="3457" dy="2633" grid="1" gridSize="10" guides="1" tooltips="1" connect="1" arrows="1" fold="1" page="1" pageScale="1" pageWidth="850" pageHeight="1100" background="none" math="0" shadow="0">
      <root>
        <mxCell id="0" />
        <mxCell id="1" parent="0" />
        <mxCell id="67" style="edgeStyle=none;html=1;exitX=0;exitY=0.5;exitDx=0;exitDy=0;fontSize=18;snapToPoint=0;orthogonal=0;entryX=0.95;entryY=1;entryDx=0;entryDy=0;orthogonalLoop=0;flowAnimation=0;backgroundOutline=0;entryPerimeter=0;" parent="1" source="9" target="58" edge="1">
          <mxGeometry relative="1" as="geometry">
            <mxPoint x="110" y="-70" as="targetPoint" />
            <Array as="points">
              <mxPoint x="-30" y="60" />
              <mxPoint x="-30" />
              <mxPoint x="114" />
            </Array>
          </mxGeometry>
        </mxCell>
        <mxCell id="68" style="edgeStyle=none;html=1;exitX=0;exitY=0.5;exitDx=0;exitDy=0;fontSize=18;entryX=0.5;entryY=1;entryDx=0;entryDy=0;entryPerimeter=0;" parent="1" source="20" target="58" edge="1">
          <mxGeometry relative="1" as="geometry">
            <mxPoint x="60" y="-50" as="targetPoint" />
            <Array as="points">
              <mxPoint x="-90" y="220" />
              <mxPoint x="-90" y="-50" />
              <mxPoint x="60" y="-50" />
            </Array>
          </mxGeometry>
        </mxCell>
        <mxCell id="69" style="edgeStyle=none;html=1;exitX=0.5;exitY=1;exitDx=0;exitDy=0;fontSize=18;entryX=0.27;entryY=1;entryDx=0;entryDy=0;entryPerimeter=0;" parent="1" source="39" target="58" edge="1">
          <mxGeometry relative="1" as="geometry">
            <mxPoint x="10" y="379" as="sourcePoint" />
            <mxPoint x="-20" y="-110" as="targetPoint" />
            <Array as="points">
              <mxPoint x="728" y="270" />
              <mxPoint x="-120" y="270" />
              <mxPoint x="-120" y="-70" />
              <mxPoint x="32" y="-70" />
            </Array>
          </mxGeometry>
        </mxCell>
        <mxCell id="94" value="" style="group" parent="1" vertex="1" connectable="0">
          <mxGeometry width="490" height="80" as="geometry" />
        </mxCell>
        <mxCell id="9" value="&lt;u&gt;ID_no&lt;/u&gt;" style="rounded=0;whiteSpace=wrap;html=1;" parent="94" vertex="1">
          <mxGeometry x="10" y="40" width="120" height="40" as="geometry" />
        </mxCell>
        <mxCell id="10" value="PAINTING" style="text;strokeColor=none;fillColor=none;html=1;fontSize=18;fontStyle=1;verticalAlign=middle;align=left;" parent="94" vertex="1">
          <mxGeometry x="10" width="100" height="40" as="geometry" />
        </mxCell>
        <mxCell id="11" value="Paint_type" style="rounded=0;whiteSpace=wrap;html=1;" parent="94" vertex="1">
          <mxGeometry x="130" y="40" width="120" height="40" as="geometry" />
        </mxCell>
        <mxCell id="12" value="Drawn_on" style="rounded=0;whiteSpace=wrap;html=1;" parent="94" vertex="1">
          <mxGeometry x="250" y="40" width="120" height="40" as="geometry" />
        </mxCell>
        <mxCell id="13" value="Style" style="rounded=0;whiteSpace=wrap;html=1;" parent="94" vertex="1">
          <mxGeometry x="370" y="40" width="120" height="40" as="geometry" />
        </mxCell>
        <mxCell id="95" value="" style="group" parent="1" vertex="1" connectable="0">
          <mxGeometry x="10" y="160" width="600" height="80" as="geometry" />
        </mxCell>
        <mxCell id="20" value="&lt;u&gt;ID_no&lt;/u&gt;" style="rounded=0;whiteSpace=wrap;html=1;" parent="95" vertex="1">
          <mxGeometry y="40" width="120" height="40" as="geometry" />
        </mxCell>
        <mxCell id="21" value="SCULPTURE" style="text;strokeColor=none;fillColor=none;html=1;fontSize=18;fontStyle=1;verticalAlign=middle;align=center;" parent="95" vertex="1">
          <mxGeometry width="110" height="40" as="geometry" />
        </mxCell>
        <mxCell id="22" value="Material" style="rounded=0;whiteSpace=wrap;html=1;" parent="95" vertex="1">
          <mxGeometry x="120" y="40" width="120" height="40" as="geometry" />
        </mxCell>
        <mxCell id="23" value="Height" style="rounded=0;whiteSpace=wrap;html=1;" parent="95" vertex="1">
          <mxGeometry x="240" y="40" width="120" height="40" as="geometry" />
        </mxCell>
        <mxCell id="24" value="Weight" style="rounded=0;whiteSpace=wrap;html=1;" parent="95" vertex="1">
          <mxGeometry x="360" y="40" width="120" height="40" as="geometry" />
        </mxCell>
        <mxCell id="26" value="Style" style="rounded=0;whiteSpace=wrap;html=1;" parent="95" vertex="1">
          <mxGeometry x="480" y="40" width="120" height="40" as="geometry" />
        </mxCell>
        <mxCell id="108" style="edgeStyle=none;html=1;exitX=0.5;exitY=1;exitDx=0;exitDy=0;entryX=0.73;entryY=1;entryDx=0;entryDy=0;fontSize=18;entryPerimeter=0;" parent="1" source="29" target="58" edge="1">
          <mxGeometry relative="1" as="geometry">
            <Array as="points">
              <mxPoint x="610" y="110" />
              <mxPoint x="-60" y="110" />
              <mxPoint x="-60" y="-20" />
              <mxPoint x="87" y="-20" />
            </Array>
          </mxGeometry>
        </mxCell>
        <mxCell id="119" value="" style="group" parent="1" vertex="1" connectable="0">
          <mxGeometry x="550" width="360" height="79.69" as="geometry" />
        </mxCell>
        <mxCell id="29" value="&lt;u&gt;ID_no&lt;/u&gt;" style="rounded=0;whiteSpace=wrap;html=1;" parent="119" vertex="1">
          <mxGeometry y="39.69" width="120" height="40" as="geometry" />
        </mxCell>
        <mxCell id="30" value="OTHER" style="text;strokeColor=none;fillColor=none;html=1;fontSize=18;fontStyle=1;verticalAlign=middle;align=left;" parent="119" vertex="1">
          <mxGeometry width="100" height="40" as="geometry" />
        </mxCell>
        <mxCell id="31" value="Type" style="rounded=0;whiteSpace=wrap;html=1;" parent="119" vertex="1">
          <mxGeometry x="120" y="39.69" width="120" height="40" as="geometry" />
        </mxCell>
        <mxCell id="32" value="Style" style="rounded=0;whiteSpace=wrap;html=1;" parent="119" vertex="1">
          <mxGeometry x="240" y="39.69" width="120" height="40" as="geometry" />
        </mxCell>
        <mxCell id="120" value="" style="group" parent="1" vertex="1" connectable="0">
          <mxGeometry x="668" y="160" width="600" height="80" as="geometry" />
        </mxCell>
        <mxCell id="39" value="&lt;u&gt;ID_no&lt;/u&gt;" style="rounded=0;whiteSpace=wrap;html=1;" parent="120" vertex="1">
          <mxGeometry y="40" width="120" height="40" as="geometry" />
        </mxCell>
        <mxCell id="40" value="STATUE" style="text;strokeColor=none;fillColor=none;html=1;fontSize=18;fontStyle=1;verticalAlign=middle;align=left;" parent="120" vertex="1">
          <mxGeometry width="100" height="40" as="geometry" />
        </mxCell>
        <mxCell id="41" value="Material" style="rounded=0;whiteSpace=wrap;html=1;" parent="120" vertex="1">
          <mxGeometry x="120" y="40" width="120" height="40" as="geometry" />
        </mxCell>
        <mxCell id="42" value="Height" style="rounded=0;whiteSpace=wrap;html=1;" parent="120" vertex="1">
          <mxGeometry x="240" y="40" width="120" height="40" as="geometry" />
        </mxCell>
        <mxCell id="43" value="Weight" style="rounded=0;whiteSpace=wrap;html=1;" parent="120" vertex="1">
          <mxGeometry x="360" y="40" width="120" height="40" as="geometry" />
        </mxCell>
        <mxCell id="45" value="Style" style="rounded=0;whiteSpace=wrap;html=1;" parent="120" vertex="1">
          <mxGeometry x="480" y="40" width="120" height="40" as="geometry" />
        </mxCell>
        <mxCell id="150" style="edgeStyle=none;html=1;fontSize=18;entryX=0;entryY=0.1;entryDx=0;entryDy=0;entryPerimeter=0;exitX=0;exitY=0.5;exitDx=0;exitDy=0;" parent="1" source="123" target="58" edge="1">
          <mxGeometry relative="1" as="geometry">
            <Array as="points">
              <mxPoint x="-240" y="860" />
              <mxPoint x="-240" y="-156" />
            </Array>
            <mxPoint x="-30" y="-160" as="targetPoint" />
            <mxPoint x="-240" y="850" as="sourcePoint" />
          </mxGeometry>
        </mxCell>
        <mxCell id="158" style="edgeStyle=none;html=1;entryX=0;entryY=0.9;entryDx=0;entryDy=0;fontSize=18;entryPerimeter=0;exitX=0;exitY=0.5;exitDx=0;exitDy=0;" parent="1" source="130" target="58" edge="1">
          <mxGeometry relative="1" as="geometry">
            <Array as="points">
              <mxPoint x="-210" y="700" />
              <mxPoint x="-210" y="-124" />
            </Array>
            <mxPoint x="-60" y="710" as="sourcePoint" />
          </mxGeometry>
        </mxCell>
        <mxCell id="161" value="" style="group" parent="1" vertex="1" connectable="0">
          <mxGeometry x="548" y="640" width="840" height="80" as="geometry" />
        </mxCell>
        <mxCell id="137" value="COLLECTIONS" style="text;strokeColor=none;fillColor=none;html=1;fontSize=18;fontStyle=1;verticalAlign=middle;align=left;" parent="161" vertex="1">
          <mxGeometry width="260" height="40" as="geometry" />
        </mxCell>
        <mxCell id="138" value="&lt;u&gt;Name&lt;/u&gt;" style="rounded=0;whiteSpace=wrap;html=1;" parent="161" vertex="1">
          <mxGeometry y="40" width="120" height="40" as="geometry" />
        </mxCell>
        <mxCell id="139" value="Description" style="rounded=0;whiteSpace=wrap;html=1;" parent="161" vertex="1">
          <mxGeometry x="240" y="40" width="120" height="40" as="geometry" />
        </mxCell>
        <mxCell id="140" value="Type" style="rounded=0;whiteSpace=wrap;html=1;" parent="161" vertex="1">
          <mxGeometry x="120" y="40" width="120" height="40" as="geometry" />
        </mxCell>
        <mxCell id="141" value="Contact_person" style="rounded=0;whiteSpace=wrap;html=1;" parent="161" vertex="1">
          <mxGeometry x="360" y="40" width="120" height="40" as="geometry" />
        </mxCell>
        <mxCell id="142" value="Phone" style="rounded=0;whiteSpace=wrap;html=1;" parent="161" vertex="1">
          <mxGeometry x="480" y="40" width="120" height="40" as="geometry" />
        </mxCell>
        <mxCell id="143" value="Address" style="rounded=0;whiteSpace=wrap;html=1;" parent="161" vertex="1">
          <mxGeometry x="600" y="40" width="120" height="40" as="geometry" />
        </mxCell>
        <mxCell id="58" value="&lt;u&gt;ID_no&lt;/u&gt;" style="rounded=0;whiteSpace=wrap;html=1;snapToPoint=0;points=[[0,0.1,0,0,0],[0,0.5,0,0,0],[0,0.9,0,0,0],[0.05,1,0,0,0],[0.25,0,0,0,0],[0.27,1,0,0,0],[0.5,0,0,0,0],[0.5,1,0,0,0],[0.73,1,0,0,0],[0.75,0,0,0,0],[0.95,1,0,0,0],[1,0,0,0,0],[1,0.25,0,0,0],[1,0.5,0,0,0],[1,0.75,0,0,0]];" parent="1" vertex="1">
          <mxGeometry x="-0.36" y="-160" width="120" height="40" as="geometry" />
        </mxCell>
        <mxCell id="59" value="ART_OBJECTS" style="text;strokeColor=none;fillColor=none;html=1;fontSize=18;fontStyle=1;verticalAlign=middle;align=left;" parent="1" vertex="1">
          <mxGeometry x="0.019999999999999574" y="-200" width="130" height="40" as="geometry" />
        </mxCell>
        <mxCell id="60" value="Title" style="rounded=0;whiteSpace=wrap;html=1;" parent="1" vertex="1">
          <mxGeometry x="359.64" y="-160" width="120" height="40" as="geometry" />
        </mxCell>
        <mxCell id="61" value="Description" style="rounded=0;whiteSpace=wrap;html=1;" parent="1" vertex="1">
          <mxGeometry x="479.64" y="-160" width="120" height="40" as="geometry" />
        </mxCell>
        <mxCell id="62" value="Year" style="rounded=0;whiteSpace=wrap;html=1;" parent="1" vertex="1">
          <mxGeometry x="599.64" y="-160" width="120" height="40" as="geometry" />
        </mxCell>
        <mxCell id="63" value="Origin_country" style="rounded=0;whiteSpace=wrap;html=1;" parent="1" vertex="1">
          <mxGeometry x="839.64" y="-160" width="120" height="40" as="geometry" />
        </mxCell>
        <mxCell id="64" value="Epoch" style="rounded=0;whiteSpace=wrap;html=1;" parent="1" vertex="1">
          <mxGeometry x="719.64" y="-160" width="120" height="40" as="geometry" />
        </mxCell>
        <mxCell id="175" style="edgeStyle=none;html=1;exitX=0.5;exitY=1;exitDx=0;exitDy=0;exitPerimeter=0;entryX=0.75;entryY=0;entryDx=0;entryDy=0;" parent="1" source="173" target="74" edge="1">
          <mxGeometry relative="1" as="geometry">
            <Array as="points">
              <mxPoint x="180" y="-60" />
              <mxPoint x="1320" y="-60" />
              <mxPoint x="1320" y="320" />
              <mxPoint x="100" y="320" />
            </Array>
          </mxGeometry>
        </mxCell>
        <mxCell id="173" value="&lt;u&gt;Artist_Fname&lt;/u&gt;" style="rounded=0;whiteSpace=wrap;html=1;snapToPoint=0;points=[[0,0.1,0,0,0],[0,0.5,0,0,0],[0,0.9,0,0,0],[0.05,1,0,0,0],[0.25,0,0,0,0],[0.27,1,0,0,0],[0.5,0,0,0,0],[0.5,1,0,0,0],[0.73,1,0,0,0],[0.75,0,0,0,0],[0.95,1,0,0,0],[1,0,0,0,0],[1,0.25,0,0,0],[1,0.5,0,0,0],[1,0.75,0,0,0]];" parent="1" vertex="1">
          <mxGeometry x="119.64" y="-160" width="120" height="40" as="geometry" />
        </mxCell>
        <mxCell id="176" style="edgeStyle=none;html=1;exitX=0.5;exitY=1;exitDx=0;exitDy=0;exitPerimeter=0;entryX=0.5;entryY=0;entryDx=0;entryDy=0;" parent="1" source="174" target="75" edge="1">
          <mxGeometry relative="1" as="geometry">
            <Array as="points">
              <mxPoint x="300" y="-90" />
              <mxPoint x="1370" y="-90" />
              <mxPoint x="1370" y="340" />
              <mxPoint x="190" y="340" />
            </Array>
          </mxGeometry>
        </mxCell>
        <mxCell id="174" value="&lt;u&gt;Artist_Lname&lt;/u&gt;" style="rounded=0;whiteSpace=wrap;html=1;snapToPoint=0;points=[[0,0.1,0,0,0],[0,0.5,0,0,0],[0,0.9,0,0,0],[0.05,1,0,0,0],[0.25,0,0,0,0],[0.27,1,0,0,0],[0.5,0,0,0,0],[0.5,1,0,0,0],[0.73,1,0,0,0],[0.75,0,0,0,0],[0.95,1,0,0,0],[1,0,0,0,0],[1,0.25,0,0,0],[1,0.5,0,0,0],[1,0.75,0,0,0]];" parent="1" vertex="1">
          <mxGeometry x="239.64" y="-160" width="120" height="40" as="geometry" />
        </mxCell>
        <mxCell id="182" value="" style="group" parent="1" vertex="1" connectable="0">
          <mxGeometry x="10" y="480" width="240" height="79.69000000000005" as="geometry" />
        </mxCell>
        <mxCell id="178" value="&lt;u&gt;ID_no&lt;/u&gt;" style="rounded=0;whiteSpace=wrap;html=1;" parent="182" vertex="1">
          <mxGeometry y="39.690000000000055" width="120" height="40" as="geometry" />
        </mxCell>
        <mxCell id="179" value="EXHIBIT" style="text;strokeColor=none;fillColor=none;html=1;fontSize=18;fontStyle=1;verticalAlign=middle;align=left;" parent="182" vertex="1">
          <mxGeometry width="100" height="40" as="geometry" />
        </mxCell>
        <mxCell id="180" value="&lt;u&gt;Name&lt;/u&gt;" style="rounded=0;whiteSpace=wrap;html=1;" parent="182" vertex="1">
          <mxGeometry x="120" y="39.690000000000055" width="120" height="40" as="geometry" />
        </mxCell>
        <mxCell id="185" style="edgeStyle=none;html=1;exitX=0;exitY=0.5;exitDx=0;exitDy=0;entryX=0.05;entryY=1;entryDx=0;entryDy=0;entryPerimeter=0;" parent="1" source="178" target="58" edge="1">
          <mxGeometry relative="1" as="geometry">
            <Array as="points">
              <mxPoint x="-150" y="540" />
              <mxPoint x="-150" y="-90" />
              <mxPoint x="6" y="-90" />
            </Array>
          </mxGeometry>
        </mxCell>
        <mxCell id="186" style="edgeStyle=none;html=1;exitX=0.5;exitY=1;exitDx=0;exitDy=0;entryX=0.5;entryY=1;entryDx=0;entryDy=0;" parent="1" source="180" target="112" edge="1">
          <mxGeometry relative="1" as="geometry">
            <Array as="points">
              <mxPoint x="190" y="600" />
              <mxPoint x="370" y="600" />
            </Array>
          </mxGeometry>
        </mxCell>
        <mxCell id="187" value="" style="group" parent="1" vertex="1" connectable="0">
          <mxGeometry x="10.019999999999987" y="640" width="479.98" height="80" as="geometry" />
        </mxCell>
        <mxCell id="130" value="&lt;u&gt;ID_no&lt;/u&gt;" style="rounded=0;whiteSpace=wrap;html=1;" parent="187" vertex="1">
          <mxGeometry y="40" width="120" height="40" as="geometry" />
        </mxCell>
        <mxCell id="131" value="BORROWED" style="text;strokeColor=none;fillColor=none;html=1;fontSize=18;fontStyle=1;verticalAlign=middle;align=left;" parent="187" vertex="1">
          <mxGeometry width="260" height="40" as="geometry" />
        </mxCell>
        <mxCell id="132" value="&lt;u&gt;Borrowed_from&lt;/u&gt;" style="rounded=0;whiteSpace=wrap;html=1;" parent="187" vertex="1">
          <mxGeometry x="119.98000000000002" y="40" width="120" height="40" as="geometry" />
        </mxCell>
        <mxCell id="133" value="Date_returned" style="rounded=0;whiteSpace=wrap;html=1;" parent="187" vertex="1">
          <mxGeometry x="359.98" y="40" width="120" height="40" as="geometry" />
        </mxCell>
        <mxCell id="134" value="Date_borrowed" style="rounded=0;whiteSpace=wrap;html=1;" parent="187" vertex="1">
          <mxGeometry x="239.98000000000002" y="40" width="120" height="40" as="geometry" />
        </mxCell>
        <mxCell id="188" style="edgeStyle=none;html=1;exitX=0.5;exitY=1;exitDx=0;exitDy=0;entryX=0.5;entryY=1;entryDx=0;entryDy=0;" parent="1" source="132" target="138" edge="1">
          <mxGeometry relative="1" as="geometry">
            <Array as="points">
              <mxPoint x="190" y="760" />
              <mxPoint x="610" y="760" />
            </Array>
          </mxGeometry>
        </mxCell>
        <mxCell id="190" value="" style="group" parent="1" vertex="1" connectable="0">
          <mxGeometry x="10" y="800" width="480" height="80" as="geometry" />
        </mxCell>
        <mxCell id="123" value="&lt;u&gt;ID_no&lt;/u&gt;" style="rounded=0;whiteSpace=wrap;html=1;container=0;" parent="190" vertex="1">
          <mxGeometry y="40" width="120" height="40" as="geometry" />
        </mxCell>
        <mxCell id="124" value="PERMANENT_COLLECTION" style="text;strokeColor=none;fillColor=none;html=1;fontSize=18;fontStyle=1;verticalAlign=middle;align=left;container=0;" parent="190" vertex="1">
          <mxGeometry width="260" height="40" as="geometry" />
        </mxCell>
        <mxCell id="125" value="Date_acquired" style="rounded=0;whiteSpace=wrap;html=1;container=0;" parent="190" vertex="1">
          <mxGeometry x="120" y="40" width="120" height="40" as="geometry" />
        </mxCell>
        <mxCell id="126" value="Cost" style="rounded=0;whiteSpace=wrap;html=1;container=0;" parent="190" vertex="1">
          <mxGeometry x="360" y="40" width="120" height="40" as="geometry" />
        </mxCell>
        <mxCell id="127" value="Status" style="rounded=0;whiteSpace=wrap;html=1;container=0;" parent="190" vertex="1">
          <mxGeometry x="240" y="40" width="120" height="40" as="geometry" />
        </mxCell>
        <mxCell id="191" value="" style="group" parent="1" vertex="1" connectable="0">
          <mxGeometry x="309.8" y="479.69" width="360.0199999999999" height="80.00000000000006" as="geometry" />
        </mxCell>
        <mxCell id="111" value="EXHIBITION" style="text;strokeColor=none;fillColor=none;html=1;fontSize=18;fontStyle=1;verticalAlign=middle;align=center;" parent="191" vertex="1">
          <mxGeometry x="0.01999999999998181" width="100" height="40" as="geometry" />
        </mxCell>
        <mxCell id="112" value="&lt;u&gt;Name&lt;/u&gt;" style="rounded=0;whiteSpace=wrap;html=1;" parent="191" vertex="1">
          <mxGeometry y="40.00000000000006" width="120" height="40" as="geometry" />
        </mxCell>
        <mxCell id="116" value="Start_date" style="rounded=0;whiteSpace=wrap;html=1;" parent="191" vertex="1">
          <mxGeometry x="120" y="40.00000000000006" width="120" height="40" as="geometry" />
        </mxCell>
        <mxCell id="165" value="End_date" style="rounded=0;whiteSpace=wrap;html=1;" parent="191" vertex="1">
          <mxGeometry x="240.01999999999992" y="40.00000000000006" width="120" height="40" as="geometry" />
        </mxCell>
        <mxCell id="193" value="" style="group" parent="1" vertex="1" connectable="0">
          <mxGeometry x="10.000000000000014" y="320" width="960" height="80" as="geometry" />
        </mxCell>
        <mxCell id="102" value="Origin_country" style="rounded=0;whiteSpace=wrap;html=1;" parent="193" vertex="1">
          <mxGeometry x="480" y="40" width="120" height="40" as="geometry" />
        </mxCell>
        <mxCell id="103" value="Epoch" style="rounded=0;whiteSpace=wrap;html=1;" parent="193" vertex="1">
          <mxGeometry x="600" y="40" width="120" height="40" as="geometry" />
        </mxCell>
        <mxCell id="104" value="Main_style" style="rounded=0;whiteSpace=wrap;html=1;" parent="193" vertex="1">
          <mxGeometry x="720" y="40" width="120" height="40" as="geometry" />
        </mxCell>
        <mxCell id="105" value="Description" style="rounded=0;whiteSpace=wrap;html=1;" parent="193" vertex="1">
          <mxGeometry x="840" y="40" width="120" height="40" as="geometry" />
        </mxCell>
        <mxCell id="101" value="Death_died" style="rounded=0;whiteSpace=wrap;html=1;" parent="193" vertex="1">
          <mxGeometry x="360" y="40" width="120" height="40" as="geometry" />
        </mxCell>
        <mxCell id="73" value="ARTIST" style="text;strokeColor=none;fillColor=none;html=1;fontSize=18;fontStyle=1;verticalAlign=middle;align=left;" parent="193" vertex="1">
          <mxGeometry x="0.019999999999985363" width="100" height="40" as="geometry" />
        </mxCell>
        <mxCell id="74" value="&lt;u&gt;FName&lt;/u&gt;" style="rounded=0;whiteSpace=wrap;html=1;" parent="193" vertex="1">
          <mxGeometry y="40" width="120" height="40" as="geometry" />
        </mxCell>
        <mxCell id="75" value="&lt;u&gt;LName&lt;/u&gt;" style="rounded=0;whiteSpace=wrap;html=1;" parent="193" vertex="1">
          <mxGeometry x="119.99999999999999" y="40" width="120" height="40" as="geometry" />
        </mxCell>
        <mxCell id="76" value="Date_born" style="rounded=0;whiteSpace=wrap;html=1;" parent="193" vertex="1">
          <mxGeometry x="240" y="40" width="120" height="40" as="geometry" />
        </mxCell>
      </root>
    </mxGraphModel>
  </diagram>
</mxfile>
